<?xml version="1.0" encoding="utf-8"?>
<!-- Generator: Adobe Illustrator 27.5.0, SVG Export Plug-In . SVG Version: 6.00 Build 0)  -->
<svg version="1.1" xmlns="http://www.w3.org/2000/svg" xmlns:xlink="http://www.w3.org/1999/xlink" x="0px" y="0px"
	 viewBox="0 0 500 500" style="enable-background:new 0 0 500 500;" xml:space="preserve">
<g id="BACKGROUND">
	<rect style="fill:#F6F6F6;" width="500" height="500"/>
</g>
<g id="OBJECTS">
	<g>
		<g>
			<path style="fill:#6FC73E;" d="M350.526,227.333c0,41.147-33.479,74.619-74.619,74.619h-86.31v-34.387h86.31
				c22.186,0,40.232-18.046,40.232-40.232s-18.046-40.232-40.232-40.232h-14.098v74.694h-34.387V152.714h48.485
				C317.047,152.714,350.526,186.186,350.526,227.333z"/>
			<radialGradient id="SVGID_1_" cx="222.7341" cy="226.8601" r="128.0965" gradientUnits="userSpaceOnUse">
				<stop  offset="0.6342" style="stop-color:#D0FD48;stop-opacity:0"/>
				<stop  offset="1" style="stop-color:#D0FD48"/>
			</radialGradient>
			<path style="fill:url(#SVGID_1_);" d="M350.526,227.333c0,41.147-33.479,74.619-74.619,74.619h-86.31v-34.387h86.31
				c22.186,0,40.232-18.046,40.232-40.232s-18.046-40.232-40.232-40.232h-14.098v74.694h-34.387V152.714h48.485
				C317.047,152.714,350.526,186.186,350.526,227.333z"/>
			
				<linearGradient id="SVGID_00000171704416075090028610000001595649509680473256_" gradientUnits="userSpaceOnUse" x1="270.0611" y1="153" x2="270.0611" y2="301.5211">
				<stop  offset="0" style="stop-color:#D0FD48"/>
				<stop  offset="1" style="stop-color:#D0FD48;stop-opacity:0"/>
			</linearGradient>
			<path style="fill:url(#SVGID_00000171704416075090028610000001595649509680473256_);" d="M350.526,227.333
				c0,41.147-33.479,74.619-74.619,74.619h-86.31v-34.387h86.31c22.186,0,40.232-18.046,40.232-40.232s-18.046-40.232-40.232-40.232
				h-14.098v74.694h-34.387V152.714h48.485C317.047,152.714,350.526,186.186,350.526,227.333z"/>
			
				<linearGradient id="SVGID_00000097485711515630147520000018113058289005119125_" gradientUnits="userSpaceOnUse" x1="270.0611" y1="301.9522" x2="270.0611" y2="245.4501">
				<stop  offset="0" style="stop-color:#076555"/>
				<stop  offset="0.5891" style="stop-color:#076555;stop-opacity:0"/>
			</linearGradient>
			<path style="opacity:0.6;fill:url(#SVGID_00000097485711515630147520000018113058289005119125_);" d="M350.526,227.333
				c0,41.147-33.479,74.619-74.619,74.619h-86.31v-34.387h86.31c22.186,0,40.232-18.046,40.232-40.232s-18.046-40.232-40.232-40.232
				h-14.098v74.694h-34.387V152.714h48.485C317.047,152.714,350.526,186.186,350.526,227.333z"/>
			<polygon style="fill:#6FC73E;" points="227.821,210.14 183.751,210.14 183.751,152.714 149.474,152.714 149.474,301.952 
				183.751,301.952 183.751,244.527 227.821,244.527 			"/>
			
				<linearGradient id="SVGID_00000077297305632774054180000002646419783665967021_" gradientUnits="userSpaceOnUse" x1="188.6475" y1="154.7653" x2="188.6475" y2="267.759">
				<stop  offset="0" style="stop-color:#D0FD48"/>
				<stop  offset="1" style="stop-color:#D0FD48;stop-opacity:0"/>
			</linearGradient>
			<polygon style="fill:url(#SVGID_00000077297305632774054180000002646419783665967021_);" points="227.821,210.14 183.751,210.14 
				183.751,152.714 149.474,152.714 149.474,301.952 183.751,301.952 183.751,244.527 227.821,244.527 			"/>
			
				<linearGradient id="SVGID_00000134211137522133578000000009102616108698033047_" gradientUnits="userSpaceOnUse" x1="183.7476" y1="227.3333" x2="227.8185" y2="227.3333">
				<stop  offset="0.3013" style="stop-color:#076555;stop-opacity:0"/>
				<stop  offset="1" style="stop-color:#076555"/>
			</linearGradient>
			
				<rect x="183.748" y="210.144" style="opacity:0.7;fill:url(#SVGID_00000134211137522133578000000009102616108698033047_);" width="44.071" height="34.378"/>
			
				<linearGradient id="SVGID_00000062882011125227026520000004632278893749858729_" gradientUnits="userSpaceOnUse" x1="118.7273" y1="3424.5808" x2="142.1315" y2="3424.5808" gradientTransform="matrix(0 1 -1 0 3669.2029 68.3233)">
				<stop  offset="0" style="stop-color:#076555"/>
				<stop  offset="1" style="stop-color:#076555;stop-opacity:0"/>
			</linearGradient>
			
				<rect x="227.433" y="187.051" style="opacity:0.7;fill:url(#SVGID_00000062882011125227026520000004632278893749858729_);" width="34.378" height="23.404"/>
			
				<linearGradient id="SVGID_00000045612733066168264100000011692694321124707739_" gradientUnits="userSpaceOnUse" x1="38.8913" y1="3466.3464" x2="82.9623" y2="3466.3464" gradientTransform="matrix(0 1 -1 0 3633.01 218.9899)">
				<stop  offset="0" style="stop-color:#076555;stop-opacity:0"/>
				<stop  offset="1" style="stop-color:#076555"/>
			</linearGradient>
			
				<rect x="149.474" y="257.881" style="opacity:0.6;fill:url(#SVGID_00000045612733066168264100000011692694321124707739_);" width="34.378" height="44.071"/>
		</g>
	</g>
</g>
<g id="TEXTS">
	<g>
		<g>
			<g>
				
					<text transform="matrix(1 0 0 1 135.979 345.4482)" style="fill:#3E6B3F; font-family:'Roboto-Bold'; font-size:37.196px; letter-spacing:2;">LOGO NAME</text>
			</g>
		</g>
		<g>
			
				<text transform="matrix(1 0 0 1 185.5591 361.083)" style="fill:#868788; font-family:'Montserrat-Regular'; font-size:14.3715px; letter-spacing:1;">TAGLINE HERE</text>
		</g>
	</g>
</g>
</svg>
